<?xml version="1.0" encoding="UTF-8"?>
<svg xmlns="http://www.w3.org/2000/svg" xmlns:xlink="http://www.w3.org/1999/xlink" width="140px" height="40px" viewBox="0 0 140 40" version="1.1">
<g id="surface1">
<path style=" stroke:none;fill-rule:nonzero;fill:rgb(0%,0%,0%);fill-opacity:1;" d="M 47.035156 10.503906 C 47.035156 10.851562 51.738281 10.902344 86.863281 10.902344 C 121.992188 10.902344 126.695312 10.851562 126.695312 10.503906 C 126.695312 10.160156 121.992188 10.105469 86.863281 10.105469 C 51.738281 10.105469 47.035156 10.160156 47.035156 10.503906 Z M 47.035156 10.503906 "/>
<path style=" stroke:none;fill-rule:nonzero;fill:rgb(0%,0%,0%);fill-opacity:1;" d="M 11.015625 11.886719 C 10.167969 12.578125 10.128906 12.820312 10.253906 19.230469 C 10.382812 25.824219 10.382812 25.851562 11.398438 26.355469 C 12.289062 26.835938 13.179688 26.863281 22.796875 26.863281 L 33.21875 26.863281 L 31.398438 25.71875 C 30.042969 24.839844 29.363281 24.574219 28.644531 24.652344 C 25.296875 25.054688 23.558594 21.863281 26.398438 20.613281 C 28.601562 19.652344 31.78125 20.71875 31.78125 22.394531 C 31.78125 23.085938 32.160156 23.539062 33.472656 24.335938 L 35.167969 25.371094 L 35.167969 18.804688 C 35.167969 10.796875 35.421875 11.171875 29.746094 11.171875 L 26.015625 11.171875 L 23.304688 12.898438 C 21.058594 14.308594 20.59375 14.761719 20.679688 15.371094 C 20.972656 16.996094 17.964844 18.164062 15.550781 17.394531 C 12.371094 16.328125 13.472656 13.296875 17.078125 13.296875 C 18.136719 13.296875 18.855469 13.058594 20.128906 12.234375 L 21.78125 11.171875 L 16.863281 11.171875 C 11.992188 11.171875 11.90625 11.171875 11.015625 11.886719 Z M 30.679688 13.855469 C 33.007812 15.027344 31.527344 17.554688 28.433594 17.660156 C 27.414062 17.6875 26.398438 18.136719 23.941406 19.679688 C 21.863281 20.957031 20.761719 21.863281 20.761719 22.261719 C 20.761719 23.589844 19.066406 24.734375 17.160156 24.734375 C 15.253906 24.734375 13.558594 23.589844 13.558594 22.3125 C 13.558594 21.410156 15.890625 20.160156 17.371094 20.265625 C 18.433594 20.320312 19.066406 20.054688 21.78125 18.378906 C 24.492188 16.703125 24.914062 16.304688 24.914062 15.503906 C 24.914062 13.589844 28.21875 12.632812 30.679688 13.855469 Z M 30.679688 13.855469 "/>
<path style=" stroke:none;fill-rule:nonzero;fill:rgb(0%,0%,0%);fill-opacity:1;" d="M 27.289062 15.027344 C 26.90625 15.636719 27.414062 16.222656 28.390625 16.222656 C 29.449219 16.222656 29.957031 15.558594 29.238281 15.027344 C 28.558594 14.519531 27.585938 14.519531 27.289062 15.027344 Z M 27.289062 15.027344 "/>
<path style=" stroke:none;fill-rule:nonzero;fill:rgb(0%,0%,0%);fill-opacity:1;" d="M 16.101562 22.445312 C 16.101562 23.21875 17.117188 23.511719 17.964844 22.980469 C 18.8125 22.445312 18.347656 21.808594 17.117188 21.808594 C 16.3125 21.808594 16.101562 21.941406 16.101562 22.445312 Z M 16.101562 22.445312 "/>
<path style=" stroke:none;fill-rule:nonzero;fill:rgb(0%,0%,0%);fill-opacity:1;" d="M 100.421875 14.894531 C 100.421875 15.1875 100.636719 15.425781 100.847656 15.425781 C 101.101562 15.425781 101.269531 15.636719 101.269531 15.902344 C 101.269531 16.328125 100.933594 16.382812 99.152344 16.382812 C 96.527344 16.355469 94.871094 17.234375 94.789062 18.671875 C 94.703125 20.585938 97.160156 21.808594 100.128906 21.328125 C 100.972656 21.195312 101.695312 21.195312 101.695312 21.304688 C 101.695312 21.4375 102.289062 21.542969 102.964844 21.542969 C 103.941406 21.542969 104.238281 21.4375 104.238281 21.011719 C 104.238281 20.71875 103.941406 20.480469 103.601562 20.480469 C 103.09375 20.480469 102.964844 19.972656 102.964844 17.421875 L 102.964844 14.363281 L 101.695312 14.363281 C 100.71875 14.363281 100.421875 14.46875 100.421875 14.894531 Z M 101.058594 18.882812 L 101.058594 20.347656 L 99.492188 20.425781 C 98.347656 20.480469 97.667969 20.347656 97.078125 19.972656 C 95.210938 18.804688 96.695312 17.179688 99.492188 17.339844 L 101.058594 17.421875 Z M 101.058594 18.882812 "/>
<path style=" stroke:none;fill-rule:nonzero;fill:rgb(0%,0%,0%);fill-opacity:1;" d="M 16.269531 15 C 15.890625 15.636719 16.441406 16.277344 17.246094 16.171875 C 17.753906 16.117188 18.007812 15.851562 18.007812 15.425781 C 18.007812 14.652344 16.652344 14.335938 16.269531 15 Z M 16.269531 15 "/>
<path style=" stroke:none;fill-rule:nonzero;fill:rgb(0%,0%,0%);fill-opacity:1;" d="M 46.609375 15.691406 C 46.609375 15.984375 46.90625 16.222656 47.246094 16.222656 C 47.753906 16.222656 47.882812 16.648438 47.882812 18.351562 C 47.882812 20.054688 47.753906 20.480469 47.246094 20.480469 C 46.90625 20.480469 46.609375 20.71875 46.609375 21.011719 C 46.609375 21.460938 46.90625 21.542969 48.515625 21.542969 C 50.128906 21.542969 50.421875 21.460938 50.421875 21.011719 C 50.421875 20.71875 50.253906 20.480469 50 20.480469 C 49.789062 20.480469 49.578125 20.292969 49.578125 20.078125 C 49.578125 19.8125 50 19.679688 50.972656 19.679688 C 52.078125 19.679688 52.5 19.839844 52.882812 20.347656 C 53.558594 21.277344 55.210938 21.703125 56.566406 21.328125 C 58.050781 20.902344 57.542969 20.1875 55.890625 20.398438 C 54.957031 20.503906 54.617188 20.425781 54.363281 20.054688 C 54.195312 19.761719 54.28125 19.546875 54.617188 19.46875 C 56.355469 19.097656 57.289062 17.605469 56.527344 16.355469 C 56.015625 15.558594 53.984375 15.160156 50.210938 15.160156 C 46.90625 15.160156 46.609375 15.210938 46.609375 15.691406 Z M 54.746094 16.675781 C 55.679688 17.207031 55.71875 17.5 54.789062 18.136719 C 54.28125 18.484375 53.515625 18.617188 51.820312 18.617188 L 49.578125 18.617188 L 49.578125 16.222656 L 51.78125 16.222656 C 53.21875 16.222656 54.238281 16.382812 54.746094 16.675781 Z M 54.746094 16.675781 "/>
<path style=" stroke:none;fill-rule:nonzero;fill:rgb(0%,0%,0%);fill-opacity:1;" d="M 84.027344 15.347656 C 83.050781 15.453125 81.78125 16.355469 81.78125 16.941406 C 81.78125 17.101562 82.078125 17.421875 82.414062 17.632812 C 82.921875 17.980469 82.921875 18.085938 82.203125 18.484375 C 80.636719 19.386719 81.355469 20.796875 83.558594 21.25 C 85 21.515625 91.738281 21.488281 92.203125 21.195312 C 92.667969 20.902344 91.90625 20.480469 90.847656 20.480469 C 89.957031 20.480469 89.832031 20.347656 89.832031 19.546875 C 89.832031 18.722656 89.957031 18.617188 90.890625 18.617188 C 91.652344 18.617188 91.949219 18.484375 91.949219 18.085938 C 91.949219 17.710938 91.652344 17.554688 90.933594 17.554688 C 90.296875 17.554688 89.832031 17.367188 89.703125 17.019531 C 89.578125 16.730469 89.28125 16.488281 88.984375 16.488281 C 88.6875 16.488281 88.390625 16.730469 88.261719 17.019531 C 88.09375 17.445312 87.667969 17.554688 86.441406 17.554688 C 84.449219 17.554688 83.472656 17.339844 83.472656 16.886719 C 83.472656 16.4375 84.449219 16.222656 86.441406 16.222656 C 88.179688 16.222656 89.066406 15.796875 88.09375 15.398438 C 87.5 15.160156 85.71875 15.132812 84.027344 15.347656 Z M 88.136719 19.574219 L 88.136719 20.503906 L 85.972656 20.425781 C 81.90625 20.265625 82.203125 18.617188 86.3125 18.617188 C 88.136719 18.617188 88.136719 18.617188 88.136719 19.574219 Z M 88.136719 19.574219 "/>
<path style=" stroke:none;fill-rule:nonzero;fill:rgb(0%,0%,0%);fill-opacity:1;" d="M 61.566406 16.621094 C 59.957031 17.046875 59.578125 18.085938 61.015625 18.085938 C 61.484375 18.085938 61.863281 17.898438 61.863281 17.660156 C 61.863281 17.339844 62.289062 17.289062 63.855469 17.339844 C 66.527344 17.445312 66.863281 18.085938 64.238281 18.085938 C 63.179688 18.085938 61.820312 18.21875 61.230469 18.402344 C 59.28125 18.960938 59.28125 20.664062 61.269531 21.222656 C 62.710938 21.648438 63.769531 21.621094 65.253906 21.144531 C 66.398438 20.769531 66.527344 20.769531 66.527344 21.144531 C 66.527344 21.410156 66.949219 21.542969 67.796875 21.542969 C 68.769531 21.542969 69.066406 21.4375 69.066406 21.011719 C 69.066406 20.71875 68.769531 20.480469 68.433594 20.480469 C 67.921875 20.480469 67.796875 20.132812 67.796875 19.015625 C 67.796875 17.792969 67.628906 17.421875 66.738281 16.886719 C 65.550781 16.117188 63.6875 16.039062 61.566406 16.621094 Z M 66.101562 19.546875 C 66.101562 20.054688 64.789062 20.480469 63.179688 20.480469 C 61.820312 20.480469 61.230469 20.132812 61.609375 19.546875 C 61.949219 18.988281 66.101562 18.988281 66.101562 19.546875 Z M 66.101562 19.546875 "/>
<path style=" stroke:none;fill-rule:nonzero;fill:rgb(0%,0%,0%);fill-opacity:1;" d="M 71.1875 17.152344 C 71.1875 18.136719 72.246094 18.484375 72.710938 17.6875 C 72.921875 17.394531 73.601562 17.289062 75.253906 17.289062 C 76.527344 17.289062 77.542969 17.367188 77.542969 17.472656 C 77.542969 17.605469 76.101562 18.085938 74.363281 18.589844 C 71.1875 19.46875 71.1875 19.496094 71.1875 20.503906 L 71.1875 21.542969 L 79.238281 21.542969 L 79.238281 20.613281 C 79.238281 19.867188 79.066406 19.679688 78.390625 19.679688 C 77.921875 19.679688 77.542969 19.867188 77.542969 20.078125 C 77.542969 20.398438 76.992188 20.480469 75.210938 20.480469 C 73.941406 20.480469 72.882812 20.371094 72.882812 20.265625 C 72.882812 20.132812 74.28125 19.628906 75.972656 19.121094 C 78.898438 18.246094 79.027344 18.164062 79.152344 17.207031 L 79.28125 16.222656 L 71.1875 16.222656 Z M 71.1875 17.152344 "/>
<path style=" stroke:none;fill-rule:nonzero;fill:rgb(0%,0%,0%);fill-opacity:1;" d="M 105.507812 16.730469 C 105.507812 16.996094 105.761719 17.289062 106.058594 17.367188 C 106.398438 17.445312 107.078125 18.402344 107.585938 19.519531 L 108.558594 21.542969 L 112.078125 21.542969 L 113.09375 19.414062 C 113.730469 18.113281 114.320312 17.289062 114.660156 17.289062 C 115 17.289062 115.253906 17.046875 115.253906 16.753906 C 115.253906 16.304688 114.957031 16.222656 113.347656 16.222656 C 111.738281 16.222656 111.441406 16.304688 111.441406 16.730469 C 111.441406 17.019531 111.652344 17.289062 111.90625 17.339844 C 112.542969 17.472656 111.058594 20.480469 110.339844 20.480469 C 110.042969 20.480469 109.449219 19.761719 108.984375 18.882812 C 108.472656 18.003906 108.304688 17.289062 108.515625 17.289062 C 108.730469 17.289062 108.898438 17.046875 108.898438 16.753906 C 108.898438 16.304688 108.601562 16.222656 107.203125 16.222656 C 105.804688 16.222656 105.507812 16.328125 105.507812 16.730469 Z M 105.507812 16.730469 "/>
<path style=" stroke:none;fill-rule:nonzero;fill:rgb(0%,0%,0%);fill-opacity:1;" d="M 118.984375 16.515625 C 118.136719 16.730469 117.796875 16.996094 117.796875 17.445312 C 117.796875 18.164062 118.8125 18.324219 119.238281 17.6875 C 119.363281 17.421875 120.042969 17.289062 121.101562 17.289062 C 122.078125 17.289062 123.007812 17.445312 123.304688 17.6875 C 123.769531 18.03125 123.515625 18.085938 121.441406 18.085938 C 119.449219 18.085938 118.855469 18.191406 118.007812 18.75 C 117.414062 19.097656 116.949219 19.574219 116.949219 19.8125 C 116.949219 20.054688 117.414062 20.53125 118.007812 20.878906 C 119.152344 21.621094 120.804688 21.730469 122.542969 21.171875 C 123.515625 20.851562 123.6875 20.851562 123.898438 21.171875 C 124.027344 21.382812 124.617188 21.542969 125.210938 21.542969 C 125.972656 21.542969 126.269531 21.410156 126.269531 21.011719 C 126.269531 20.71875 125.972656 20.480469 125.636719 20.480469 C 125.128906 20.480469 125 20.132812 125 18.9375 C 125 18.085938 124.746094 17.179688 124.449219 16.914062 C 123.769531 16.328125 120.636719 16.117188 118.984375 16.515625 Z M 123.347656 19.652344 C 122.246094 20.902344 118.21875 20.746094 118.984375 19.46875 C 119.066406 19.28125 120 19.148438 121.441406 19.148438 C 123.558594 19.148438 123.730469 19.175781 123.347656 19.652344 Z M 123.347656 19.652344 "/>
<path style=" stroke:none;fill-rule:nonzero;fill:rgb(0%,0%,0%);fill-opacity:1;" d="M 27.289062 22.207031 C 27.117188 22.445312 27.203125 22.765625 27.457031 22.925781 C 28.136719 23.351562 29.449219 23.058594 29.449219 22.472656 C 29.449219 21.78125 27.667969 21.570312 27.289062 22.207031 Z M 27.289062 22.207031 "/>
<path style=" stroke:none;fill-rule:nonzero;fill:rgb(0%,0%,0%);fill-opacity:1;" d="M 47.035156 27.527344 C 47.035156 27.871094 51.738281 27.925781 86.863281 27.925781 C 121.992188 27.925781 126.695312 27.871094 126.695312 27.527344 C 126.695312 27.179688 121.992188 27.128906 86.863281 27.128906 C 51.738281 27.128906 47.035156 27.179688 47.035156 27.527344 Z M 47.035156 27.527344 "/>
</g>
</svg>
