<?xml version="1.0" encoding="UTF-8"?>
<svg xmlns="http://www.w3.org/2000/svg" xmlns:xlink="http://www.w3.org/1999/xlink" width="140px" height="64px" viewBox="0 0 140 64" version="1.1">
<g id="surface1">
<path style=" stroke:none;fill-rule:nonzero;fill:rgb(0%,0%,0%);fill-opacity:1;" d="M 47.035156 16.808594 C 47.035156 17.363281 51.738281 17.445312 86.863281 17.445312 C 121.992188 17.445312 126.695312 17.363281 126.695312 16.808594 C 126.695312 16.253906 121.992188 16.171875 86.863281 16.171875 C 51.738281 16.171875 47.035156 16.253906 47.035156 16.808594 Z M 47.035156 16.808594 "/>
<path style=" stroke:none;fill-rule:nonzero;fill:rgb(0%,0%,0%);fill-opacity:1;" d="M 11.015625 19.019531 C 10.167969 20.128906 10.128906 20.511719 10.253906 30.765625 C 10.382812 41.320312 10.382812 41.363281 11.398438 42.171875 C 12.289062 42.9375 13.179688 42.980469 22.796875 42.980469 L 33.21875 42.980469 L 31.398438 41.148438 C 30.042969 39.746094 29.363281 39.320312 28.644531 39.445312 C 25.296875 40.085938 23.558594 34.980469 26.398438 32.980469 C 28.601562 31.445312 31.78125 33.148438 31.78125 35.828125 C 31.78125 36.9375 32.160156 37.660156 33.472656 38.9375 L 35.167969 40.597656 L 35.167969 30.085938 C 35.167969 17.277344 35.421875 17.871094 29.746094 17.871094 L 26.015625 17.871094 L 23.304688 20.636719 C 21.058594 22.894531 20.59375 23.617188 20.679688 24.597656 C 20.972656 27.191406 17.964844 29.0625 15.550781 27.828125 C 12.371094 26.128906 13.472656 21.277344 17.078125 21.277344 C 18.136719 21.277344 18.855469 20.894531 20.128906 19.574219 L 21.78125 17.871094 L 16.863281 17.871094 C 11.992188 17.871094 11.90625 17.871094 11.015625 19.019531 Z M 30.679688 22.171875 C 33.007812 24.042969 31.527344 28.085938 28.433594 28.253906 C 27.414062 28.296875 26.398438 29.019531 23.941406 31.488281 C 21.863281 33.53125 20.761719 34.980469 20.761719 35.617188 C 20.761719 37.746094 19.066406 39.574219 17.160156 39.574219 C 15.253906 39.574219 13.558594 37.746094 13.558594 35.703125 C 13.558594 34.253906 15.890625 32.253906 17.371094 32.425781 C 18.433594 32.511719 19.066406 32.085938 21.78125 29.402344 C 24.492188 26.722656 24.914062 26.085938 24.914062 24.808594 C 24.914062 21.746094 28.21875 20.210938 30.679688 22.171875 Z M 30.679688 22.171875 "/>
<path style=" stroke:none;fill-rule:nonzero;fill:rgb(0%,0%,0%);fill-opacity:1;" d="M 27.289062 24.042969 C 26.90625 25.019531 27.414062 25.957031 28.390625 25.957031 C 29.449219 25.957031 29.957031 24.894531 29.238281 24.042969 C 28.558594 23.234375 27.585938 23.234375 27.289062 24.042969 Z M 27.289062 24.042969 "/>
<path style=" stroke:none;fill-rule:nonzero;fill:rgb(0%,0%,0%);fill-opacity:1;" d="M 16.101562 35.914062 C 16.101562 37.148438 17.117188 37.617188 17.964844 36.765625 C 18.8125 35.914062 18.347656 34.894531 17.117188 34.894531 C 16.3125 34.894531 16.101562 35.105469 16.101562 35.914062 Z M 16.101562 35.914062 "/>
<path style=" stroke:none;fill-rule:nonzero;fill:rgb(0%,0%,0%);fill-opacity:1;" d="M 100.421875 23.828125 C 100.421875 24.296875 100.636719 24.679688 100.847656 24.679688 C 101.101562 24.679688 101.269531 25.019531 101.269531 25.445312 C 101.269531 26.128906 100.933594 26.210938 99.152344 26.210938 C 96.527344 26.171875 94.871094 27.574219 94.789062 29.871094 C 94.703125 32.9375 97.160156 34.894531 100.128906 34.128906 C 100.972656 33.914062 101.695312 33.914062 101.695312 34.085938 C 101.695312 34.296875 102.289062 34.46875 102.964844 34.46875 C 103.941406 34.46875 104.238281 34.296875 104.238281 33.617188 C 104.238281 33.148438 103.941406 32.765625 103.601562 32.765625 C 103.09375 32.765625 102.964844 31.957031 102.964844 27.871094 L 102.964844 22.980469 L 101.695312 22.980469 C 100.71875 22.980469 100.421875 23.148438 100.421875 23.828125 Z M 101.058594 30.210938 L 101.058594 32.554688 L 99.492188 32.679688 C 98.347656 32.765625 97.667969 32.554688 97.078125 31.957031 C 95.210938 30.085938 96.695312 27.488281 99.492188 27.746094 L 101.058594 27.871094 Z M 101.058594 30.210938 "/>
<path style=" stroke:none;fill-rule:nonzero;fill:rgb(0%,0%,0%);fill-opacity:1;" d="M 16.269531 24 C 15.890625 25.019531 16.441406 26.042969 17.246094 25.871094 C 17.753906 25.789062 18.007812 25.363281 18.007812 24.679688 C 18.007812 23.445312 16.652344 22.9375 16.269531 24 Z M 16.269531 24 "/>
<path style=" stroke:none;fill-rule:nonzero;fill:rgb(0%,0%,0%);fill-opacity:1;" d="M 46.609375 25.105469 C 46.609375 25.574219 46.90625 25.957031 47.246094 25.957031 C 47.753906 25.957031 47.882812 26.636719 47.882812 29.363281 C 47.882812 32.085938 47.753906 32.765625 47.246094 32.765625 C 46.90625 32.765625 46.609375 33.148438 46.609375 33.617188 C 46.609375 34.339844 46.90625 34.46875 48.515625 34.46875 C 50.128906 34.46875 50.421875 34.339844 50.421875 33.617188 C 50.421875 33.148438 50.253906 32.765625 50 32.765625 C 49.789062 32.765625 49.578125 32.46875 49.578125 32.128906 C 49.578125 31.703125 50 31.488281 50.972656 31.488281 C 52.078125 31.488281 52.5 31.746094 52.882812 32.554688 C 53.558594 34.042969 55.210938 34.722656 56.566406 34.128906 C 58.050781 33.445312 57.542969 32.296875 55.890625 32.636719 C 54.957031 32.808594 54.617188 32.679688 54.363281 32.085938 C 54.195312 31.617188 54.28125 31.277344 54.617188 31.148438 C 56.355469 30.554688 57.289062 28.171875 56.527344 26.171875 C 56.015625 24.894531 53.984375 24.253906 50.210938 24.253906 C 46.90625 24.253906 46.609375 24.339844 46.609375 25.105469 Z M 54.746094 26.679688 C 55.679688 27.53125 55.71875 28 54.789062 29.019531 C 54.28125 29.574219 53.515625 29.789062 51.820312 29.789062 L 49.578125 29.789062 L 49.578125 25.957031 L 51.78125 25.957031 C 53.21875 25.957031 54.238281 26.210938 54.746094 26.679688 Z M 54.746094 26.679688 "/>
<path style=" stroke:none;fill-rule:nonzero;fill:rgb(0%,0%,0%);fill-opacity:1;" d="M 84.027344 24.554688 C 83.050781 24.722656 81.78125 26.171875 81.78125 27.105469 C 81.78125 27.363281 82.078125 27.871094 82.414062 28.210938 C 82.921875 28.765625 82.921875 28.9375 82.203125 29.574219 C 80.636719 31.019531 81.355469 33.277344 83.558594 34 C 85 34.425781 91.738281 34.382812 92.203125 33.914062 C 92.667969 33.445312 91.90625 32.765625 90.847656 32.765625 C 89.957031 32.765625 89.832031 32.554688 89.832031 31.277344 C 89.832031 29.957031 89.957031 29.789062 90.890625 29.789062 C 91.652344 29.789062 91.949219 29.574219 91.949219 28.9375 C 91.949219 28.339844 91.652344 28.085938 90.933594 28.085938 C 90.296875 28.085938 89.832031 27.789062 89.703125 27.234375 C 89.578125 26.765625 89.28125 26.382812 88.984375 26.382812 C 88.6875 26.382812 88.390625 26.765625 88.261719 27.234375 C 88.09375 27.914062 87.667969 28.085938 86.441406 28.085938 C 84.449219 28.085938 83.472656 27.746094 83.472656 27.019531 C 83.472656 26.296875 84.449219 25.957031 86.441406 25.957031 C 88.179688 25.957031 89.066406 25.277344 88.09375 24.636719 C 87.5 24.253906 85.71875 24.210938 84.027344 24.554688 Z M 88.136719 31.320312 L 88.136719 32.808594 L 85.972656 32.679688 C 81.90625 32.425781 82.203125 29.789062 86.3125 29.789062 C 88.136719 29.789062 88.136719 29.789062 88.136719 31.320312 Z M 88.136719 31.320312 "/>
<path style=" stroke:none;fill-rule:nonzero;fill:rgb(0%,0%,0%);fill-opacity:1;" d="M 61.566406 26.597656 C 59.957031 27.277344 59.578125 28.9375 61.015625 28.9375 C 61.484375 28.9375 61.863281 28.636719 61.863281 28.253906 C 61.863281 27.746094 62.289062 27.660156 63.855469 27.746094 C 66.527344 27.914062 66.863281 28.9375 64.238281 28.9375 C 63.179688 28.9375 61.820312 29.148438 61.230469 29.445312 C 59.28125 30.339844 59.28125 33.0625 61.269531 33.957031 C 62.710938 34.636719 63.769531 34.597656 65.253906 33.828125 C 66.398438 33.234375 66.527344 33.234375 66.527344 33.828125 C 66.527344 34.253906 66.949219 34.46875 67.796875 34.46875 C 68.769531 34.46875 69.066406 34.296875 69.066406 33.617188 C 69.066406 33.148438 68.769531 32.765625 68.433594 32.765625 C 67.921875 32.765625 67.796875 32.210938 67.796875 30.425781 C 67.796875 28.46875 67.628906 27.871094 66.738281 27.019531 C 65.550781 25.789062 63.6875 25.660156 61.566406 26.597656 Z M 66.101562 31.277344 C 66.101562 32.085938 64.789062 32.765625 63.179688 32.765625 C 61.820312 32.765625 61.230469 32.210938 61.609375 31.277344 C 61.949219 30.382812 66.101562 30.382812 66.101562 31.277344 Z M 66.101562 31.277344 "/>
<path style=" stroke:none;fill-rule:nonzero;fill:rgb(0%,0%,0%);fill-opacity:1;" d="M 71.1875 27.445312 C 71.1875 29.019531 72.246094 29.574219 72.710938 28.296875 C 72.921875 27.828125 73.601562 27.660156 75.253906 27.660156 C 76.527344 27.660156 77.542969 27.789062 77.542969 27.957031 C 77.542969 28.171875 76.101562 28.9375 74.363281 29.746094 C 71.1875 31.148438 71.1875 31.191406 71.1875 32.808594 L 71.1875 34.46875 L 79.238281 34.46875 L 79.238281 32.980469 C 79.238281 31.789062 79.066406 31.488281 78.390625 31.488281 C 77.921875 31.488281 77.542969 31.789062 77.542969 32.128906 C 77.542969 32.636719 76.992188 32.765625 75.210938 32.765625 C 73.941406 32.765625 72.882812 32.597656 72.882812 32.425781 C 72.882812 32.210938 74.28125 31.402344 75.972656 30.597656 C 78.898438 29.191406 79.027344 29.0625 79.152344 27.53125 L 79.28125 25.957031 L 71.1875 25.957031 Z M 71.1875 27.445312 "/>
<path style=" stroke:none;fill-rule:nonzero;fill:rgb(0%,0%,0%);fill-opacity:1;" d="M 105.507812 26.765625 C 105.507812 27.191406 105.761719 27.660156 106.058594 27.789062 C 106.398438 27.914062 107.078125 29.445312 107.585938 31.234375 L 108.558594 34.46875 L 112.078125 34.46875 L 113.09375 31.0625 C 113.730469 28.980469 114.320312 27.660156 114.660156 27.660156 C 115 27.660156 115.253906 27.277344 115.253906 26.808594 C 115.253906 26.085938 114.957031 25.957031 113.347656 25.957031 C 111.738281 25.957031 111.441406 26.085938 111.441406 26.765625 C 111.441406 27.234375 111.652344 27.660156 111.90625 27.746094 C 112.542969 27.957031 111.058594 32.765625 110.339844 32.765625 C 110.042969 32.765625 109.449219 31.617188 108.984375 30.210938 C 108.472656 28.808594 108.304688 27.660156 108.515625 27.660156 C 108.730469 27.660156 108.898438 27.277344 108.898438 26.808594 C 108.898438 26.085938 108.601562 25.957031 107.203125 25.957031 C 105.804688 25.957031 105.507812 26.128906 105.507812 26.765625 Z M 105.507812 26.765625 "/>
<path style=" stroke:none;fill-rule:nonzero;fill:rgb(0%,0%,0%);fill-opacity:1;" d="M 118.984375 26.425781 C 118.136719 26.765625 117.796875 27.191406 117.796875 27.914062 C 117.796875 29.0625 118.8125 29.320312 119.238281 28.296875 C 119.363281 27.871094 120.042969 27.660156 121.101562 27.660156 C 122.078125 27.660156 123.007812 27.914062 123.304688 28.296875 C 123.769531 28.851562 123.515625 28.9375 121.441406 28.9375 C 119.449219 28.9375 118.855469 29.105469 118.007812 30 C 117.414062 30.554688 116.949219 31.320312 116.949219 31.703125 C 116.949219 32.085938 117.414062 32.851562 118.007812 33.402344 C 119.152344 34.597656 120.804688 34.765625 122.542969 33.871094 C 123.515625 33.363281 123.6875 33.363281 123.898438 33.871094 C 124.027344 34.210938 124.617188 34.46875 125.210938 34.46875 C 125.972656 34.46875 126.269531 34.253906 126.269531 33.617188 C 126.269531 33.148438 125.972656 32.765625 125.636719 32.765625 C 125.128906 32.765625 125 32.210938 125 30.296875 C 125 28.9375 124.746094 27.488281 124.449219 27.0625 C 123.769531 26.128906 120.636719 25.789062 118.984375 26.425781 Z M 123.347656 31.445312 C 122.246094 33.445312 118.21875 33.191406 118.984375 31.148438 C 119.066406 30.851562 120 30.636719 121.441406 30.636719 C 123.558594 30.636719 123.730469 30.679688 123.347656 31.445312 Z M 123.347656 31.445312 "/>
<path style=" stroke:none;fill-rule:nonzero;fill:rgb(0%,0%,0%);fill-opacity:1;" d="M 27.289062 35.53125 C 27.117188 35.914062 27.203125 36.425781 27.457031 36.679688 C 28.136719 37.363281 29.449219 36.894531 29.449219 35.957031 C 29.449219 34.851562 27.667969 34.511719 27.289062 35.53125 Z M 27.289062 35.53125 "/>
<path style=" stroke:none;fill-rule:nonzero;fill:rgb(0%,0%,0%);fill-opacity:1;" d="M 47.035156 44.042969 C 47.035156 44.597656 51.738281 44.679688 86.863281 44.679688 C 121.992188 44.679688 126.695312 44.597656 126.695312 44.042969 C 126.695312 43.488281 121.992188 43.402344 86.863281 43.402344 C 51.738281 43.402344 47.035156 43.488281 47.035156 44.042969 Z M 47.035156 44.042969 "/>
</g>
</svg>
