<?xml version="1.0" standalone="no"?>
<!DOCTYPE svg PUBLIC "-//W3C//DTD SVG 20010904//EN"
 "http://www.w3.org/TR/2001/REC-SVG-20010904/DTD/svg10.dtd">
<svg version="1.0" xmlns="http://www.w3.org/2000/svg"
 width="330.000000pt" height="150.000000pt" viewBox="0 0 330.000000 150.000000"
 preserveAspectRatio="xMidYMid meet">

<g transform="translate(0.000000,150.000000) scale(0.100000,-0.100000)"
fill="#000000" stroke="none">
<path d="M1110 1105 c0 -13 111 -15 940 -15 829 0 940 2 940 15 0 13 -111 15
-940 15 -829 0 -940 -2 -940 -15z"/>
<path d="M260 1053 c-20 -26 -21 -35 -18 -276 3 -248 3 -249 27 -268 21 -18
42 -19 269 -19 l246 0 -43 43 c-32 33 -48 43 -65 40 -79 -15 -120 105 -53 152
52 36 127 -4 127 -67 0 -26 9 -43 40 -73 l40 -39 0 247 c0 301 6 287 -128 287
l-88 0 -64 -65 c-53 -53 -64 -70 -62 -93 7 -61 -64 -105 -121 -76 -75 40 -49
154 36 154 25 0 42 9 72 40 l39 40 -116 0 c-115 0 -117 0 -138 -27z m464 -74
c55 -44 20 -139 -53 -143 -24 -1 -48 -18 -106 -76 -49 -48 -75 -82 -75 -97 0
-50 -40 -93 -85 -93 -45 0 -85 43 -85 91 0 34 55 81 90 77 25 -2 40 8 104 71
64 63 74 78 74 108 0 72 78 108 136 62z"/>
<path d="M644 935 c-9 -23 3 -45 26 -45 25 0 37 25 20 45 -16 19 -39 19 -46 0z"/>
<path d="M380 656 c0 -29 24 -40 44 -20 20 20 9 44 -20 44 -19 0 -24 -5 -24
-24z"/>
<path d="M2370 940 c0 -11 5 -20 10 -20 6 0 10 -8 10 -18 0 -16 -8 -18 -50
-18 -62 1 -101 -32 -103 -86 -2 -72 56 -118 126 -100 20 5 37 5 37 1 0 -5 14
-9 30 -9 23 0 30 4 30 20 0 11 -7 20 -15 20 -12 0 -15 19 -15 115 l0 115 -30
0 c-23 0 -30 -4 -30 -20z m15 -150 l0 -55 -37 -3 c-27 -2 -43 3 -57 17 -44 44
-9 105 57 99 l37 -3 0 -55z"/>
<path d="M384 936 c-9 -24 4 -48 23 -44 12 2 18 12 18 28 0 29 -32 41 -41 16z"/>
<path d="M1100 910 c0 -11 7 -20 15 -20 12 0 15 -16 15 -80 0 -64 -3 -80 -15
-80 -8 0 -15 -9 -15 -20 0 -17 7 -20 45 -20 38 0 45 3 45 20 0 11 -4 20 -10
20 -5 0 -10 7 -10 15 0 10 10 15 33 15 26 0 36 -6 45 -25 16 -35 55 -51 87
-37 35 16 23 43 -16 35 -22 -4 -30 -1 -36 13 -4 11 -2 19 6 22 41 14 63 70 45
117 -12 30 -60 45 -149 45 -78 0 -85 -2 -85 -20z m192 -37 c22 -20 23 -31 1
-55 -12 -13 -30 -18 -70 -18 l-53 0 0 45 0 45 52 0 c34 0 58 -6 70 -17z"/>
<path d="M1983 923 c-23 -4 -53 -38 -53 -60 0 -6 7 -18 15 -26 12 -13 12 -17
-5 -32 -37 -34 -20 -87 32 -104 34 -10 193 -9 204 2 11 11 -7 27 -32 27 -21 0
-24 5 -24 35 0 31 3 35 25 35 18 0 25 5 25 20 0 14 -7 20 -24 20 -15 0 -26 7
-29 20 -3 11 -10 20 -17 20 -7 0 -14 -9 -17 -20 -4 -16 -14 -20 -43 -20 -47 0
-70 8 -70 25 0 17 23 25 70 25 41 0 62 16 39 31 -14 9 -56 10 -96 2z m97 -159
l0 -35 -51 3 c-96 6 -89 68 8 68 43 0 43 0 43 -36z"/>
<path d="M1453 875 c-38 -16 -47 -55 -13 -55 11 0 20 7 20 16 0 12 10 14 47
12 63 -4 71 -28 9 -28 -25 0 -57 -5 -71 -12 -46 -21 -46 -85 1 -106 34 -16 59
-15 94 3 27 14 30 14 30 0 0 -10 10 -15 30 -15 23 0 30 4 30 20 0 11 -7 20
-15 20 -12 0 -15 13 -15 55 0 46 -4 60 -25 80 -28 29 -72 32 -122 10z m107
-110 c0 -19 -31 -35 -69 -35 -32 0 -46 13 -37 35 8 21 106 21 106 0z"/>
<path d="M1680 855 c0 -37 25 -50 36 -20 5 11 21 15 60 15 30 0 54 -3 54 -7 0
-5 -34 -23 -75 -42 -75 -33 -75 -34 -75 -72 l0 -39 95 0 95 0 0 35 c0 28 -4
35 -20 35 -11 0 -20 -7 -20 -15 0 -12 -13 -15 -55 -15 -30 0 -55 4 -55 8 0 5
33 24 73 43 69 33 72 36 75 72 l3 37 -95 0 -96 0 0 -35z"/>
<path d="M2490 871 c0 -10 6 -21 13 -24 8 -3 24 -39 36 -81 l23 -76 41 0 42 0
24 80 c15 49 29 80 37 80 8 0 14 9 14 20 0 17 -7 20 -45 20 -38 0 -45 -3 -45
-19 0 -11 5 -21 11 -23 15 -5 -20 -118 -37 -118 -7 0 -21 27 -32 60 -12 33
-16 60 -11 60 5 0 9 9 9 20 0 17 -7 20 -40 20 -33 0 -40 -4 -40 -19z"/>
<path d="M2808 879 c-20 -8 -28 -18 -28 -35 0 -27 24 -33 34 -9 3 10 19 15 44
15 23 0 45 -6 52 -15 11 -13 5 -15 -44 -15 -47 0 -61 -4 -81 -25 -14 -13 -25
-31 -25 -40 0 -9 11 -27 25 -40 27 -28 66 -32 107 -11 23 12 27 12 32 0 3 -8
17 -14 31 -14 18 0 25 5 25 20 0 11 -7 20 -15 20 -12 0 -15 13 -15 58 0 32 -6
66 -13 76 -16 22 -90 30 -129 15z m103 -118 c-26 -47 -121 -41 -103 7 2 7 24
12 58 12 50 0 54 -1 45 -19z"/>
<path d="M644 665 c-4 -9 -2 -21 4 -27 16 -16 47 -5 47 17 0 26 -42 34 -51 10z"/>
<path d="M1110 465 c0 -13 111 -15 940 -15 829 0 940 2 940 15 0 13 -111 15
-940 15 -829 0 -940 -2 -940 -15z"/>
</g>
</svg>
