<?xml version="1.0" encoding="UTF-8"?>
<svg xmlns="http://www.w3.org/2000/svg" xmlns:xlink="http://www.w3.org/1999/xlink" width="40px" height="40px" viewBox="0 0 40 40" version="1.1">
<g id="surface1">
<path style=" stroke:none;fill-rule:nonzero;fill:rgb(0%,0%,0%);fill-opacity:1;" d="M 34.140625 5.859375 C 30.363281 2.082031 25.34375 0 20 0 C 14.65625 0 9.636719 2.082031 5.859375 5.859375 C 2.082031 9.636719 0 14.65625 0 20 C 0 25.34375 2.082031 30.363281 5.859375 34.140625 C 9.636719 37.917969 14.65625 40 20 40 C 25.34375 40 30.363281 37.917969 34.140625 34.140625 C 37.917969 30.363281 40 25.34375 40 20 C 40 14.65625 37.917969 9.636719 34.140625 5.859375 Z M 20 37.527344 C 10.335938 37.527344 2.472656 29.664062 2.472656 20 C 2.472656 10.335938 10.335938 2.472656 20 2.472656 C 29.664062 2.472656 37.527344 10.335938 37.527344 20 C 37.527344 29.664062 29.664062 37.527344 20 37.527344 Z M 20 37.527344 "/>
<path style=" stroke:none;fill-rule:nonzero;fill:rgb(0%,0%,0%);fill-opacity:1;" d="M 14.933594 27.757812 L 28.367188 20 L 14.933594 12.242188 Z M 14.933594 27.757812 "/>
</g>
</svg>
